<?xml version="1.0" encoding="UTF-8"?>
<!DOCTYPE svg PUBLIC "-//W3C//DTD SVG 1.1//EN" "http://www.w3.org/Graphics/SVG/1.1/DTD/svg11.dtd">
<svg xmlns="http://www.w3.org/2000/svg" version="1.1" width="512px" height="512px" style="shape-rendering:geometricPrecision; text-rendering:geometricPrecision; image-rendering:optimizeQuality; fill-rule:evenodd; clip-rule:evenodd" xmlns:xlink="http://www.w3.org/1999/xlink">
<g><path style="opacity:0.977" fill="#2eab5b" d="M 511.5,233.5 C 511.5,248.167 511.5,262.833 511.5,277.5C 498.867,371.959 448.867,438.126 361.5,476C 289.015,502.016 219.348,496.016 152.5,458C 83.198,413.604 45.5313,350.104 39.5,267.5C 19.2486,267.899 5.91522,258.565 -0.5,239.5C -0.5,216.5 -0.5,193.5 -0.5,170.5C 3.02855,165.238 8.02855,162.905 14.5,163.5C 14.3334,150.163 14.5001,136.829 15,123.5C 19.7281,115.386 26.2281,113.553 34.5,118C 36.8936,119.952 38.3936,122.452 39,125.5C 39.4999,138.162 39.6666,150.829 39.5,163.5C 47.5,163.5 55.5,163.5 63.5,163.5C 63.3334,150.163 63.5001,136.829 64,123.5C 68.6836,115.385 75.1836,113.551 83.5,118C 85.0488,119.214 86.2155,120.714 87,122.5C 88.4266,136.107 88.9266,149.774 88.5,163.5C 95.3497,162.672 100.183,165.339 103,171.5C 103.667,193.833 103.667,216.167 103,238.5C 97.3628,257.734 84.5294,267.401 64.5,267.5C 71.8561,348.756 111.523,408.256 183.5,446C 257.653,478.414 328.653,472.747 396.5,429C 469.164,373.383 497.664,300.217 482,209.5C 466.876,148.023 432.043,101.523 377.5,70C 303.878,32.8867 231.545,35.2201 160.5,77C 148.315,77.5199 143.481,71.6865 146,59.5C 149.109,55.5191 152.942,52.3525 157.5,50C 235.301,8.41951 313.301,8.08617 391.5,49C 461.457,90.831 501.457,152.331 511.5,233.5 Z M 232.5,166.5 C 236.769,166.734 240.769,167.901 244.5,170C 284.683,194.93 325.683,218.597 367.5,241C 374.443,247.182 376.276,254.682 373,263.5C 370.833,267 368,269.833 364.5,272C 324.5,295 284.5,318 244.5,341C 230.118,346.989 220.951,342.489 217,327.5C 216.333,279.167 216.333,230.833 217,182.5C 219.015,173.986 224.182,168.653 232.5,166.5 Z"/></g>
<g><path style="opacity:0.978" fill="#2eab5b" d="M 224.5,142.5 C 233.331,141.92 241.998,142.753 250.5,145C 282.327,162.079 313.994,179.413 345.5,197C 358.67,205.084 371.67,213.417 384.5,222C 400.792,238.156 403.959,256.656 394,277.5C 391.287,281.092 388.453,284.592 385.5,288C 343.331,312.919 300.997,337.586 258.5,362C 234.356,374.419 214.189,369.919 198,348.5C 194.611,342.611 192.611,336.278 192,329.5C 191.032,277.805 191.365,226.139 193,174.5C 197.683,157.985 208.183,147.318 224.5,142.5 Z M 232.5,166.5 C 224.182,168.653 219.015,173.986 217,182.5C 216.333,230.833 216.333,279.167 217,327.5C 220.951,342.489 230.118,346.989 244.5,341C 284.5,318 324.5,295 364.5,272C 368,269.833 370.833,267 373,263.5C 376.276,254.682 374.443,247.182 367.5,241C 325.683,218.597 284.683,194.93 244.5,170C 240.769,167.901 236.769,166.734 232.5,166.5 Z"/></g>
</svg>
