<svg xmlns="http://www.w3.org/2000/svg" xml:space="preserve" version="1.1" style="shape-rendering:geometricPrecision; text-rendering:geometricPrecision; image-rendering:optimizeQuality; fill-rule:evenodd; clip-rule:evenodd" xmlns:xlink="http://www.w3.org/1999/xlink" xmlns:xodm="http://www.corel.com/coreldraw/odm/2003" viewBox="9990.68 690.15 27829.52 5000.02">
 <defs>
  <style type="text/css">
   <![CDATA[
    .str0 {stroke:#EF7F1A;stroke-width:17.64;stroke-miterlimit:2.61313}
    .fil1 {fill:#EF7F1A}
    .fil0 {fill:#08428C;fill-rule:nonzero}
   ]]>
  </style>
 </defs>
 <g id="Layer_x0020_1">
  <metadata id="CorelCorpID_0Corel-Layer"/>
  <g id="_2717153503168">
   <path class="fil0" d="M36510.41 3280.91c323.59,0 510.9,-5.1 561.76,-15.31 50.91,-10.25 76.37,-50.16 76.37,-119.69 0,-83.85 -35.68,-136.57 -106.88,-158.03 -71.26,-21.51 -248.32,-32.23 -531.25,-32.23 -559.73,0 -912.89,-40.9 -1059.44,-122.78 -146.59,-81.83 -219.84,-284.33 -219.84,-607.57 0,-298.71 95.62,-489.97 287,-573.87 146.53,-63.39 472.22,-95.1 977.03,-95.1 449.77,0 734.74,12.3 854.84,36.81 282.93,57.31 424.44,298.73 424.44,724.2l-671.71 0c0,-116.57 -25.47,-184.59 -76.38,-204.08 -50.85,-19.42 -226.92,-29.1 -528.17,-29.1 -303.3,0 -478.32,5.62 -525.13,16.86 -46.84,11.27 -70.21,52.67 -70.21,124.28 0,75.68 39.67,124.8 118.99,147.31 79.39,22.49 242.23,33.73 488.58,33.73 553.64,0 910.34,43.97 1070.11,131.95 159.82,87.97 239.68,290.53 239.68,607.62 0,292.56 -89.61,479.76 -268.69,561.58 -154.65,69.53 -502.77,104.34 -1044.17,104.34 -417.3,0 -688.02,-9.22 -812.18,-27.61 -191.29,-28.66 -321.6,-95.64 -390.78,-201 -69.24,-105.37 -103.81,-287.99 -103.81,-547.79l671.71 0c0,122.78 26.44,194.33 79.39,214.8 52.94,20.49 239.14,30.68 558.74,30.68z"/>
   <polygon class="fil1 str0" points="34570.2,2726.3 34268.53,2141.27 33966.87,1556.33 34570.2,1556.33 35173.6,1556.33 34871.94,2141.27 "/>
   <polygon class="fil1 str0" points="30564.83,3105.64 29895.18,2541.46 29225.55,1977.27 30564.83,1977.27 31904.11,1977.27 31234.4,2541.46 "/>
   <polygon class="fil1 str0" points="30564.81,3306.88 31234.46,3887.82 31904.09,4468.77 30564.81,4468.77 29225.54,4468.77 29895.24,3887.82 "/>
   <path class="fil0" d="M14808.97 1603.28l1682.09 0 1575.32 3193.44 -1143.62 0 -302.66 -536.72 -1940.19 0 -302.58 536.72 -1143.64 0 1575.28 -3193.44zm916.68 720.07l-151.24 0 -529.57 1109.25 1205.91 0 -525.1 -1109.25z"/>
   <path class="fil0" d="M20124.55 1556.31c907.85,0 1467.01,76.07 1677.63,228.11 184,131.22 275.93,480.08 275.93,1046.64l-983.42 0c0,-184.88 -48.97,-302.7 -146.86,-353.36 -121.65,-62.64 -396.04,-93.92 -823.28,-93.92 -477.62,0 -757.96,37.25 -841.05,111.78 -83.05,74.59 -124.57,310.15 -124.57,706.71 0,393.61 41.52,627.63 124.57,702.22 83.09,74.53 363.43,111.79 841.05,111.79 433.12,0 703.85,-26.11 812.13,-78.25 108.25,-52.2 162.45,-175.23 162.45,-368.98l978.98 0c0,569.52 -89.03,918.38 -267,1046.59 -210.62,152.03 -772.84,228.1 -1686.56,228.1 -913.69,0 -1466.24,-83.52 -1657.58,-250.5 -191.39,-167 -287.07,-632.12 -287.07,-1395.46 0,-760.33 92.02,-1221.01 275.92,-1382.04 198.77,-172.95 755.04,-259.43 1668.73,-259.43z"/>
   <polygon class="fil0" points="22608.79,1601.06 23587.81,1601.06 23587.81,2719.23 25701.56,2719.23 25701.56,1601.06 26680.57,1601.06 26680.57,4799 25701.56,4799 25701.56,3546.7 23587.81,3546.7 23587.81,4799 22608.79,4799 "/>
   <polygon class="fil0" points="9990.69,2426.27 9990.69,1598.78 13777.64,1598.78 13777.64,2426.27 12375.91,2426.27 12375.91,4801.21 11396.87,4801.21 11396.87,2426.27 "/>
   <path class="fil0" d="M33901.21 3194.43c0,1494.96 -180.71,1731.47 -541.27,2023.15 -389.11,314.78 -840.5,472.58 -2799.41,472.58 -1431.98,0 -1646.27,-62.8 -2094.87,-154.69 -1002.04,-205.26 -1237.22,-805.15 -1237.22,-2341.04 0,-1494.95 178.06,-1731.31 532.68,-2023.13 389.21,-320.26 840.47,-481.15 2799.41,-481.15 1953.19,0 2401.99,157.43 2790.79,472.54 366.59,297.07 549.89,536.79 549.89,2031.74zm-5505.81 0c0,784.71 90.24,1241.54 270.66,1370.41 180.38,128.83 811.9,193.3 1894.47,193.3 1088.3,0 1722.64,-64.43 1903.1,-193.3 180.4,-128.91 270.61,-585.7 270.61,-1370.41 0,-790.46 -90.21,-1250.09 -270.61,-1378.96 -180.46,-128.87 -811.94,-193.34 -1894.52,-193.34 -1088.27,0 -1722.67,64.51 -1903.05,193.34 -180.42,128.83 -270.66,588.5 -270.66,1378.96z"/>
  </g>
 </g>
</svg>